<svg id="logo" xmlns="http://www.w3.org/2000/svg" width="160" height="168.314" viewBox="0 0 160 168.314">
    <defs>
        <clipPath id="clip-path">
            <path id="사각형_3334" data-name="사각형 3334" style="fill:none" d="M0 0h160v168.314H0z"/>
        </clipPath>
        <style>
            .cls-3{fill:#007fff}
        </style>
    </defs>
    <g id="그룹_5445" data-name="그룹 5445" style="clip-path:url(#clip-path)">
        <path id="패스_7662" data-name="패스 7662" d="M19.34 56.612q-1.149 1.653-2.346 3.61t-2.28 3.578a2.465 2.465 0 0 1-1.012.862 3.08 3.08 0 0 1-2.328-.018 1.942 1.942 0 0 1-.979-.877L5.839 56.44v14.006a2.237 2.237 0 0 1-.892 1.994 3.519 3.519 0 0 1-2.009.607 3.868 3.868 0 0 1-1.1-.153 2.674 2.674 0 0 1-.931-.472 2.461 2.461 0 0 1-.655-.811A2.509 2.509 0 0 1 0 70.446V50a2.181 2.181 0 0 1 .9-1.892 3.424 3.424 0 0 1 2.042-.64 8.781 8.781 0 0 1 1.282.084 3.211 3.211 0 0 1 1.045.336 3.88 3.88 0 0 1 .91.691 6.932 6.932 0 0 1 .88 1.114l5.466 8.572 5.671-8.572a5.5 5.5 0 0 1 1.7-1.739 4.777 4.777 0 0 1 2.346-.487 3.3 3.3 0 0 1 2.057.64A2.228 2.228 0 0 1 25.142 50v20.446a2.509 2.509 0 0 1-.252 1.165 2.431 2.431 0 0 1-.658.811 2.66 2.66 0 0 1-.928.472 3.767 3.767 0 0 1-2.126 0 2.66 2.66 0 0 1-.928-.472 2.431 2.431 0 0 1-.658-.811 2.509 2.509 0 0 1-.252-1.165z" transform="translate(0 95.099)"/>
        <path id="패스_7663" data-name="패스 7663" d="M20.329 73.217a18.793 18.793 0 0 1-4.1-.424 8.99 8.99 0 0 1-3.238-1.385 6.711 6.711 0 0 1-2.145-2.478 8.382 8.382 0 0 1-.808-3.715q-.072-2.428-.069-4.842t.069-4.944a8.085 8.085 0 0 1 .826-3.679 6.871 6.871 0 0 1 2.16-2.481 8.987 8.987 0 0 1 3.238-1.382 18.443 18.443 0 0 1 4.07-.424 16.26 16.26 0 0 1 3.947.457 9.445 9.445 0 0 1 3.19 1.418 7.226 7.226 0 0 1 2.2 2.463 8.255 8.255 0 0 1 .925 3.628q.1 2.428.084 4.959t-.084 4.827a7.939 7.939 0 0 1-.841 3.646 7 7 0 0 1-2.2 2.481 9.68 9.68 0 0 1-3.238 1.418 16.707 16.707 0 0 1-3.983.457m4.653-17.787a3.522 3.522 0 0 0-1.316-2.886 5.472 5.472 0 0 0-3.34-.928 5.358 5.358 0 0 0-3.394.946 3.637 3.637 0 0 0-1.264 2.9q-.1 4.893 0 9.752a3.574 3.574 0 0 0 1.264 2.9 5.511 5.511 0 0 0 3.394.91 5.192 5.192 0 0 0 3.289-.961 3.8 3.8 0 0 0 1.367-2.886c.111-1.6.15-3.193.12-4.794s-.075-3.247-.12-4.959" transform="translate(19.969 95.097)"/>
        <path id="패스_7664" data-name="패스 7664" d="M28.7 73.217a18.793 18.793 0 0 1-4.1-.424 8.99 8.99 0 0 1-3.238-1.385 6.711 6.711 0 0 1-2.145-2.478 8.382 8.382 0 0 1-.808-3.715q-.072-2.428-.069-4.842t.069-4.944a8.085 8.085 0 0 1 .826-3.679 6.871 6.871 0 0 1 2.16-2.481 8.987 8.987 0 0 1 3.238-1.382 18.443 18.443 0 0 1 4.07-.424 16.26 16.26 0 0 1 3.947.457 9.445 9.445 0 0 1 3.19 1.418 7.226 7.226 0 0 1 2.2 2.463 8.255 8.255 0 0 1 .925 3.628q.1 2.428.084 4.959t-.084 4.827a7.9 7.9 0 0 1-.844 3.646 6.959 6.959 0 0 1-2.193 2.481 9.68 9.68 0 0 1-3.238 1.418 16.707 16.707 0 0 1-3.983.457m4.648-17.787a3.522 3.522 0 0 0-1.316-2.886 5.472 5.472 0 0 0-3.34-.928 5.358 5.358 0 0 0-3.394.946 3.637 3.637 0 0 0-1.264 2.9q-.1 4.893 0 9.752a3.574 3.574 0 0 0 1.264 2.9 5.511 5.511 0 0 0 3.394.91 5.192 5.192 0 0 0 3.289-.961 3.8 3.8 0 0 0 1.367-2.886c.111-1.6.15-3.193.117-4.794s-.072-3.247-.117-4.959" transform="translate(36.738 95.097)"/>
        <path id="패스_7665" data-name="패스 7665" d="M44.427 56.373a3.51 3.51 0 0 1-2.009-.556 1.863 1.863 0 0 1-.9-1.436 2.835 2.835 0 0 0-1.264-2.042 5.6 5.6 0 0 0-3.19-.757 5.177 5.177 0 0 0-3.358.976 3.845 3.845 0 0 0-1.3 2.937q-.072 2.464-.1 4.944t.1 4.911a3.673 3.673 0 0 0 1.283 2.9 5.407 5.407 0 0 0 3.373.913 5.231 5.231 0 0 0 3.274-.913 3.433 3.433 0 0 0 1.18-2.9v-2.228h-3.129a3.276 3.276 0 0 1-1.183-.183 1.989 1.989 0 0 1-.742-.475 1.532 1.532 0 0 1-.372-.658 2.863 2.863 0 0 1-.1-.742 2.559 2.559 0 0 1 .1-.691 1.685 1.685 0 0 1 .372-.658 2.038 2.038 0 0 1 .742-.508 3.012 3.012 0 0 1 1.183-.2H45q2.329 0 2.328 2.024v4.319a7.943 7.943 0 0 1-.793 3.712 6.746 6.746 0 0 1-2.2 2.481 9.352 9.352 0 0 1-3.271 1.385 18.3 18.3 0 0 1-4 .421 18.792 18.792 0 0 1-4.1-.421 9.02 9.02 0 0 1-3.238-1.385 6.721 6.721 0 0 1-2.145-2.481 8.409 8.409 0 0 1-.811-3.712q-.068-2.428-.066-4.926t.066-5.031a7.926 7.926 0 0 1 .844-3.643 7.038 7.038 0 0 1 2.186-2.48 9.419 9.419 0 0 1 3.19-1.418 15.963 15.963 0 0 1 3.881-.454 16.463 16.463 0 0 1 4.217.5 11.993 11.993 0 0 1 3.307 1.367 6.967 6.967 0 0 1 2.163 2.024 4.4 4.4 0 0 1 .775 2.481q0 2.6-2.9 2.6" transform="translate(53.512 94.964)"/>
        <path id="패스_7666" data-name="패스 7666" d="M51.325 56.373a2.944 2.944 0 0 1-1.823-.556 1.916 1.916 0 0 1-.811-1.436 2.847 2.847 0 0 0-1.114-2.042 4.686 4.686 0 0 0-2.9-.757q-3.78 0-3.947 3.914-.1 2.6-.084 5.013t.084 4.842a3.982 3.982 0 0 0 1.045 2.9 4.105 4.105 0 0 0 2.9.913 4.371 4.371 0 0 0 2.886-.778 3.528 3.528 0 0 0 1.063-2.4 1.882 1.882 0 0 1 .877-1.415A3.011 3.011 0 0 1 51.289 64a2.34 2.34 0 0 1 2.634 2.664 5.38 5.38 0 0 1-.658 2.6 6.557 6.557 0 0 1-1.874 2.123 9.431 9.431 0 0 1-2.919 1.436 12.92 12.92 0 0 1-3.8.523 15.664 15.664 0 0 1-3.712-.421 8.243 8.243 0 0 1-3-1.385 6.925 6.925 0 0 1-2.042-2.481 8.887 8.887 0 0 1-.826-3.712q-.135-5.163 0-9.957a8.494 8.494 0 0 1 .844-3.643 6.952 6.952 0 0 1 2.074-2.477A8.787 8.787 0 0 1 41 47.853a14.3 14.3 0 0 1 7.338.051 10.31 10.31 0 0 1 2.988 1.367 6.527 6.527 0 0 1 1.94 2.024 4.791 4.791 0 0 1 .691 2.481 2.311 2.311 0 0 1-2.631 2.6" transform="translate(70.17 94.964)"/>
        <path id="패스_7667" data-name="패스 7667" d="M57.84 61.874h-9.449v8.1a3.581 3.581 0 0 1-.237 1.382 2.6 2.6 0 0 1-.64.946 2.692 2.692 0 0 1-.928.559 3.214 3.214 0 0 1-3.124-.559 2.83 2.83 0 0 1-.91-2.328V50.5a2.787 2.787 0 0 1 .91-2.295 3.214 3.214 0 0 1 3.124-.559 2.692 2.692 0 0 1 .928.559 2.608 2.608 0 0 1 .64.943 3.517 3.517 0 0 1 .237 1.352v7.151h9.449V50.5a2.832 2.832 0 0 1 .877-2.313 3.162 3.162 0 0 1 4.049.018 2.78 2.78 0 0 1 .913 2.295v19.474a2.822 2.822 0 0 1-.913 2.328 3.117 3.117 0 0 1-2.024.742 3.043 3.043 0 0 1-2.024-.742 2.881 2.881 0 0 1-.877-2.328z" transform="translate(85.253 95.099)"/>
        <path id="패스_7668" data-name="패스 7668" d="M51.316 49.962a2.1 2.1 0 0 1 .928-1.889 3.708 3.708 0 0 1 2.075-.607 3.758 3.758 0 0 1 1.063.15 2.821 2.821 0 0 1 .928.457 2.163 2.163 0 0 1 .643.775 2.487 2.487 0 0 1 .234 1.114v20.484a2.671 2.671 0 0 1-.234 1.165 2.289 2.289 0 0 1-.643.811 2.634 2.634 0 0 1-.928.472 3.758 3.758 0 0 1-1.063.15 4.071 4.071 0 0 1-1.114-.15 2.844 2.844 0 0 1-.961-.472 2.374 2.374 0 0 1-.676-.811 2.547 2.547 0 0 1-.252-1.165z" transform="translate(102.812 95.099)"/>
        <path id="패스_7669" data-name="패스 7669" class="cls-3" d="M42.56 58.371a24.708 24.708 0 0 1-23.52-17.042 4.849 4.849 0 0 1 9.214-3.029 15.053 15.053 0 0 0 28.611 0 4.849 4.849 0 1 1 9.215 3.025 24.709 24.709 0 0 1-23.52 17.046" transform="translate(37.661 70.059)"/>
        <path id="패스_7670" data-name="패스 7670" class="cls-3" d="M45.146 60.993a4.848 4.848 0 0 1-1.511-9.455 15.056 15.056 0 0 0 0-28.614 4.848 4.848 0 1 1 3.025-9.212 24.75 24.75 0 0 1 0 47.038 4.848 4.848 0 0 1-1.514.243" transform="translate(80.735 26.986)"/>
        <path id="패스_7671" data-name="패스 7671" class="cls-3" d="M23.885 60.993a4.848 4.848 0 0 1-1.514-.243 24.75 24.75 0 0 1 0-47.038 4.848 4.848 0 1 1 3.029 9.212 15.055 15.055 0 0 0 0 28.614 4.848 4.848 0 0 1-1.511 9.455" transform="translate(10.677 26.986)"/>
        <path id="패스_7672" data-name="패스 7672" class="cls-3" d="M45.244 64.665a24.712 24.712 0 0 1-11.191-2.679 4.847 4.847 0 1 1 4.376-8.65A15.053 15.053 0 0 0 58.661 33.1a4.849 4.849 0 1 1 8.653-4.379 24.758 24.758 0 0 1-22.07 35.94" transform="translate(62.891 52.214)"/>
        <path id="패스_7673" data-name="패스 7673" class="cls-3" d="M33.922 64.665a24.76 24.76 0 0 1-22.07-35.94 4.849 4.849 0 1 1 8.653 4.375 15.054 15.054 0 0 0 20.232 20.235 4.848 4.848 0 1 1 4.379 8.65 24.724 24.724 0 0 1-11.194 2.679" transform="translate(18.381 52.214)"/>
        <path id="패스_7674" data-name="패스 7674" class="cls-3" d="M62.985 42.449a4.79 4.79 0 0 1-2.184-.526 4.845 4.845 0 0 1-2.138-6.515 15.055 15.055 0 0 0-20.235-20.23 4.848 4.848 0 1 1-4.376-8.653 24.752 24.752 0 0 1 33.264 33.263 4.85 4.85 0 0 1-4.331 2.661" transform="translate(62.892 7.703)"/>
        <path id="패스_7675" data-name="패스 7675" d="M85.358 17.042a24.754 24.754 0 0 0-44.978-4.634 24.756 24.756 0 0 0-28.527 35.084 4.849 4.849 0 0 0 8.653-4.379 15.054 15.054 0 0 1 16.277-21.59 14.3 14.3 0 0 0-.318 2.033c-.661 7.764 1.5 15.03 5.785 19.436a13.9 13.9 0 0 0 10.873 4.361 4.869 4.869 0 0 0 2.859-1.141 13.324 13.324 0 0 0 4.468-10.248c.081-6.286-3.223-13.182-8.626-18a13.788 13.788 0 0 0-2.424-1.703 15.055 15.055 0 0 1 26.74 3.8 4.849 4.849 0 0 0 9.215-3.022m-35.048 13.57c1.334 3.625 1.478 6.908.321 7.332s-3.175-2.166-4.508-5.791-1.481-6.905-.324-7.332 3.178 2.166 4.511 5.791" transform="translate(18.38)" style="fill:#fa0"/>
    </g>
</svg>
