<svg xmlns="http://www.w3.org/2000/svg" width="144.608" height="172.552" viewBox="0 0 144.608 172.552">
    <defs>
        <clipPath id="clip-path">
            <path id="사각형_3311" data-name="사각형 3311" style="fill:none" d="M0 0h144.608v172.552H0z"/>
        </clipPath>
        <style>
            .cls-3{fill:#fff}
        </style>
    </defs>
    <g id="image">
        <g id="그룹_5401" data-name="그룹 5401" style="clip-path:url(#clip-path)">
            <path id="패스_7624" data-name="패스 7624" class="cls-3" d="M17.479 63.257q-1.038 1.494-2.12 3.263T13.3 69.753a2.228 2.228 0 0 1-.915.779 2.783 2.783 0 0 1-2.1-.016 1.755 1.755 0 0 1-.885-.793L5.277 63.1v12.66a2.022 2.022 0 0 1-.806 1.8 3.181 3.181 0 0 1-1.816.548 3.5 3.5 0 0 1-.991-.138 2.417 2.417 0 0 1-.842-.426 2.224 2.224 0 0 1-.592-.733A2.267 2.267 0 0 1 0 75.76V57.279a1.971 1.971 0 0 1 .809-1.71 3.1 3.1 0 0 1 1.846-.578 7.937 7.937 0 0 1 1.159.076 2.9 2.9 0 0 1 .945.3 3.507 3.507 0 0 1 .822.633 6.266 6.266 0 0 1 .796 1l4.941 7.747L16.442 57a4.969 4.969 0 0 1 1.539-1.572 4.317 4.317 0 0 1 2.12-.44 2.983 2.983 0 0 1 1.859.578 2.014 2.014 0 0 1 .763 1.71V75.76a2.267 2.267 0 0 1-.228 1.053 2.2 2.2 0 0 1-.594.733 2.4 2.4 0 0 1-.839.426 3.4 3.4 0 0 1-1.922 0 2.4 2.4 0 0 1-.839-.426 2.2 2.2 0 0 1-.594-.733 2.267 2.267 0 0 1-.228-1.053z" transform="translate(0 94.287)"/>
            <path id="패스_7625" data-name="패스 7625" class="cls-3" d="M19.332 78.266a16.987 16.987 0 0 1-3.708-.383 8.126 8.126 0 0 1-2.924-1.251 6.066 6.066 0 0 1-1.938-2.24 7.575 7.575 0 0 1-.73-3.358q-.065-2.195-.062-4.376t.062-4.468a7.307 7.307 0 0 1 .747-3.325 6.21 6.21 0 0 1 1.952-2.242 8.123 8.123 0 0 1 2.926-1.249 16.668 16.668 0 0 1 3.678-.383 14.7 14.7 0 0 1 3.565.409 8.536 8.536 0 0 1 2.883 1.281 6.531 6.531 0 0 1 1.984 2.226 7.461 7.461 0 0 1 .833 3.283q.094 2.195.076 4.482t-.076 4.362a7.175 7.175 0 0 1-.76 3.3 6.323 6.323 0 0 1-1.984 2.242 8.748 8.748 0 0 1-2.926 1.281 15.1 15.1 0 0 1-3.6.413m4.21-16.08a3.183 3.183 0 0 0-1.189-2.609 4.946 4.946 0 0 0-3.019-.839 4.842 4.842 0 0 0-3.067.855 3.287 3.287 0 0 0-1.143 2.622q-.09 4.422 0 8.814a3.23 3.23 0 0 0 1.143 2.625 4.981 4.981 0 0 0 3.067.823 4.693 4.693 0 0 0 2.972-.869A3.438 3.438 0 0 0 23.54 71c.1-1.444.136-2.886.109-4.332s-.068-2.934-.109-4.482" transform="translate(17.089 94.287)"/>
            <path id="패스_7626" data-name="패스 7626" class="cls-3" d="M27.7 78.266a16.987 16.987 0 0 1-3.708-.383 8.126 8.126 0 0 1-2.926-1.251 6.066 6.066 0 0 1-1.938-2.24 7.575 7.575 0 0 1-.73-3.358q-.065-2.195-.062-4.376t.064-4.468a7.307 7.307 0 0 1 .747-3.325 6.21 6.21 0 0 1 1.953-2.243 8.123 8.123 0 0 1 2.926-1.249 16.668 16.668 0 0 1 3.678-.383 14.7 14.7 0 0 1 3.567.413 8.536 8.536 0 0 1 2.883 1.281 6.531 6.531 0 0 1 1.984 2.226 7.461 7.461 0 0 1 .836 3.279q.094 2.195.076 4.482t-.076 4.362a7.141 7.141 0 0 1-.763 3.3 6.29 6.29 0 0 1-1.982 2.242 8.748 8.748 0 0 1-2.929 1.278 15.1 15.1 0 0 1-3.6.413m4.21-16.076a3.183 3.183 0 0 0-1.189-2.609 4.946 4.946 0 0 0-3.019-.839 4.842 4.842 0 0 0-3.067.855 3.287 3.287 0 0 0-1.143 2.622q-.09 4.422 0 8.814a3.23 3.23 0 0 0 1.143 2.625 4.981 4.981 0 0 0 3.067.823 4.692 4.692 0 0 0 2.972-.869A3.438 3.438 0 0 0 31.91 71c.1-1.444.136-2.886.106-4.332s-.065-2.934-.106-4.482" transform="translate(31.44 94.287)"/>
            <path id="패스_7627" data-name="패스 7627" class="cls-3" d="M42.722 63.035a3.172 3.172 0 0 1-1.816-.5 1.684 1.684 0 0 1-.809-1.3 2.562 2.562 0 0 0-1.143-1.846 5.065 5.065 0 0 0-2.883-.684 4.679 4.679 0 0 0-3.035.882 3.475 3.475 0 0 0-1.173 2.655q-.065 2.227-.092 4.468t.092 4.438a3.319 3.319 0 0 0 1.159 2.622 4.887 4.887 0 0 0 3.048.825 4.728 4.728 0 0 0 2.959-.825 3.1 3.1 0 0 0 1.071-2.621v-2.014h-2.837a2.961 2.961 0 0 1-1.07-.166 1.8 1.8 0 0 1-.67-.429 1.384 1.384 0 0 1-.337-.594 2.587 2.587 0 0 1-.09-.671 2.313 2.313 0 0 1 .09-.624 1.522 1.522 0 0 1 .337-.594 1.842 1.842 0 0 1 .67-.459 2.723 2.723 0 0 1 1.07-.182h5.977q2.105 0 2.1 1.83v3.9a7.179 7.179 0 0 1-.717 3.355 6.1 6.1 0 0 1-1.984 2.242A8.453 8.453 0 0 1 39.687 78a16.545 16.545 0 0 1-3.616.38 16.985 16.985 0 0 1-3.705-.38 8.153 8.153 0 0 1-2.926-1.251A6.074 6.074 0 0 1 27.5 74.5a7.6 7.6 0 0 1-.733-3.355q-.061-2.195-.06-4.452t.06-4.547a7.163 7.163 0 0 1 .763-3.293 6.361 6.361 0 0 1 1.97-2.238 8.513 8.513 0 0 1 2.883-1.281 14.426 14.426 0 0 1 3.507-.41 14.88 14.88 0 0 1 3.811.456 10.839 10.839 0 0 1 2.989 1.235 6.3 6.3 0 0 1 1.954 1.83 3.975 3.975 0 0 1 .7 2.242q0 2.349-2.622 2.348" transform="translate(45.795 94.173)"/>
            <path id="패스_7628" data-name="패스 7628" class="cls-3" d="M49.757 63.035a2.661 2.661 0 0 1-1.648-.5 1.731 1.731 0 0 1-.733-1.3 2.573 2.573 0 0 0-1.007-1.846 4.235 4.235 0 0 0-2.622-.684q-3.416 0-3.567 3.537-.094 2.349-.076 4.531t.076 4.376a3.6 3.6 0 0 0 .945 2.622 3.71 3.71 0 0 0 2.622.825 3.95 3.95 0 0 0 2.609-.7 3.188 3.188 0 0 0 .961-2.166 1.7 1.7 0 0 1 .793-1.279 2.721 2.721 0 0 1 1.615-.518 2.115 2.115 0 0 1 2.375 2.405 4.863 4.863 0 0 1-.594 2.351 5.926 5.926 0 0 1-1.694 1.919 8.524 8.524 0 0 1-2.639 1.3 11.677 11.677 0 0 1-3.431.472 14.158 14.158 0 0 1-3.35-.38 7.45 7.45 0 0 1-2.715-1.251 6.259 6.259 0 0 1-1.846-2.249 8.032 8.032 0 0 1-.746-3.355q-.122-4.666 0-9a7.677 7.677 0 0 1 .763-3.293 6.283 6.283 0 0 1 1.876-2.242 7.941 7.941 0 0 1 2.7-1.281 12.922 12.922 0 0 1 6.632.046 9.318 9.318 0 0 1 2.7 1.235 5.9 5.9 0 0 1 1.754 1.83 4.33 4.33 0 0 1 .624 2.242 2.088 2.088 0 0 1-2.378 2.348" transform="translate(60.05 94.173)"/>
            <path id="패스_7629" data-name="패스 7629" class="cls-3" d="M56.369 68.014h-8.54v7.321a3.236 3.236 0 0 1-.214 1.249 2.345 2.345 0 0 1-.578.855 2.433 2.433 0 0 1-.839.5 2.905 2.905 0 0 1-2.823-.5 2.558 2.558 0 0 1-.823-2.1v-17.6a2.519 2.519 0 0 1 .823-2.074 2.905 2.905 0 0 1 2.823-.5 2.433 2.433 0 0 1 .839.5 2.357 2.357 0 0 1 .578.852 3.179 3.179 0 0 1 .214 1.222V64.2h8.54v-6.464a2.559 2.559 0 0 1 .793-2.09 2.858 2.858 0 0 1 3.659.016 2.512 2.512 0 0 1 .825 2.074v17.6a2.551 2.551 0 0 1-.825 2.1 2.817 2.817 0 0 1-1.83.67 2.75 2.75 0 0 1-1.83-.67 2.6 2.6 0 0 1-.793-2.1z" transform="translate(72.958 94.289)"/>
            <path id="패스_7630" data-name="패스 7630" class="cls-3" d="M51.316 57.247a1.9 1.9 0 0 1 .839-1.707 3.351 3.351 0 0 1 1.876-.548 3.4 3.4 0 0 1 .961.136 2.55 2.55 0 0 1 .839.413 1.954 1.954 0 0 1 .581.7 2.247 2.247 0 0 1 .212 1.007V75.76a2.414 2.414 0 0 1-.212 1.053 2.068 2.068 0 0 1-.581.733 2.381 2.381 0 0 1-.839.426 3.4 3.4 0 0 1-.961.136 3.679 3.679 0 0 1-1.007-.136 2.57 2.57 0 0 1-.869-.426 2.145 2.145 0 0 1-.611-.733 2.3 2.3 0 0 1-.228-1.053z" transform="translate(87.985 94.287)"/>
            <path id="패스_7631" data-name="패스 7631" d="M112.447 131.513H23.89a21.539 21.539 0 0 1-21.478-21.478V21.478A21.539 21.539 0 0 1 23.89 0h88.557a21.539 21.539 0 0 1 21.478 21.478v88.557a21.539 21.539 0 0 1-21.478 21.478" transform="translate(4.136 .001)" style="fill:#007fff"/>
            <path id="패스_7632" data-name="패스 7632" class="cls-3" d="M114.222 53.122a20.541 20.541 0 0 0-10.4-17.862A20.531 20.531 0 0 0 76.218 10.8a25.869 25.869 0 0 0-33.394 3.9 25.913 25.913 0 0 0-23.012 19.468 20.529 20.529 0 0 0-2.242 36.816 20.51 20.51 0 0 0 25.273 25.283 20.536 20.536 0 0 0 35.7 0 20.56 20.56 0 0 0 25.273-25.284 20.541 20.541 0 0 0 10.4-17.862" transform="translate(12.285 10.995)"/>
            <path id="패스_7633" data-name="패스 7633" d="M16.553 45.707a4.039 4.039 0 0 1-3.608-2.221 20.634 20.634 0 0 1 23.78-29.244 20.636 20.636 0 0 1 37.494 3.863 4.041 4.041 0 0 1-7.68 2.522 12.551 12.551 0 0 0-22.292-3.173 11.755 11.755 0 0 1 2.017 1.425c4.5 4.012 7.259 9.759 7.191 15a11.126 11.126 0 0 1-3.724 8.545 4.044 4.044 0 0 1-2.383.95 11.583 11.583 0 0 1-9.067-3.635c-3.57-3.673-5.372-9.729-4.821-16.2a12.362 12.362 0 0 1 .266-1.7 12.553 12.553 0 0 0-13.567 18 4.044 4.044 0 0 1-3.6 5.869m24.9-20.264c-.071 3.591.918 6.9 2.628 8.662a4.208 4.208 0 0 0 1.148.863 5.328 5.328 0 0 0 .147-1.192c.033-2.72-1.488-5.918-3.923-8.334" transform="translate(18.365 6.688)" style="fill:#ffb000"/>
            <path id="패스_7634" data-name="패스 7634" class="cls-3" d="M26.129 16.373c1.113 3.021 1.232 5.758.269 6.113s-2.647-1.808-3.76-4.827-1.232-5.758-.269-6.113 2.647 1.805 3.76 4.827" transform="translate(37.237 19.732)"/>
        </g>
    </g>
</svg>
