<svg id="logo" xmlns="http://www.w3.org/2000/svg" width="231" height="52.486" viewBox="0 0 231 52.486">
    <defs>
        <clipPath id="clip-path">
            <path id="사각형_3561" data-name="사각형 3561" style="fill:none" d="M0 0h231v52.486H0z"/>
        </clipPath>
        <style>
            .cls-3{fill:#fff}
        </style>
    </defs>
    <g id="그룹_5502" data-name="그룹 5502" style="clip-path:url(#clip-path)">
        <path id="패스_7776" data-name="패스 7776" class="cls-3" d="M68.755 19.511q-1.21 1.74-2.468 3.8t-2.4 3.764a2.584 2.584 0 0 1-1.066.905 3.261 3.261 0 0 1-1.242.23 3.315 3.315 0 0 1-1.208-.249 2.033 2.033 0 0 1-1.029-.923l-4.791-7.7v14.728a2.353 2.353 0 0 1-.941 2.1 3.688 3.688 0 0 1-2.11.634 4.078 4.078 0 0 1-1.154-.159 2.8 2.8 0 0 1-.978-.5 2.575 2.575 0 0 1-.691-.851 2.638 2.638 0 0 1-.267-1.225V12.552a2.29 2.29 0 0 1 .941-1.989A3.585 3.585 0 0 1 51.5 9.89a9.248 9.248 0 0 1 1.348.088 3.281 3.281 0 0 1 1.1.355 4.1 4.1 0 0 1 .959.726 7.336 7.336 0 0 1 .923 1.172l5.752 9.018 5.964-9.018a5.742 5.742 0 0 1 1.793-1.831 5.028 5.028 0 0 1 2.469-.513 3.469 3.469 0 0 1 2.165.673 2.346 2.346 0 0 1 .887 1.989v21.517a2.622 2.622 0 0 1-.267 1.225 2.543 2.543 0 0 1-.691.851 2.8 2.8 0 0 1-.976.5 4 4 0 0 1-2.236 0 2.8 2.8 0 0 1-.978-.5 2.591 2.591 0 0 1-.691-.851 2.638 2.638 0 0 1-.265-1.225z" transform="translate(14.273 2.916)"/>
        <path id="패스_7777" data-name="패스 7777" class="cls-3" d="M83.631 36.978a19.652 19.652 0 0 1-4.313-.444 9.47 9.47 0 0 1-3.408-1.457 7.051 7.051 0 0 1-2.256-2.609 8.8 8.8 0 0 1-.852-3.905q-.072-2.556-.071-5.1t.071-5.2a8.569 8.569 0 0 1 .869-3.872 7.232 7.232 0 0 1 2.272-2.608 9.465 9.465 0 0 1 3.408-1.455 19.432 19.432 0 0 1 4.279-.443 17.133 17.133 0 0 1 4.153.478 9.976 9.976 0 0 1 3.356 1.49 7.607 7.607 0 0 1 2.307 2.592 8.712 8.712 0 0 1 .976 3.817q.107 2.556.088 5.218t-.088 5.077a8.334 8.334 0 0 1-.888 3.835A7.334 7.334 0 0 1 91.228 35a10.142 10.142 0 0 1-3.408 1.5 17.451 17.451 0 0 1-4.189.48m4.9-18.71a3.7 3.7 0 0 0-1.383-3.035 5.757 5.757 0 0 0-3.515-.976 5.644 5.644 0 0 0-3.569.993 3.83 3.83 0 0 0-1.333 3.048q-.107 5.149 0 10.26a3.757 3.757 0 0 0 1.331 3.053 5.785 5.785 0 0 0 3.569.958 5.481 5.481 0 0 0 3.461-1.01 3.992 3.992 0 0 0 1.437-3.036q.177-2.521.124-5.042t-.124-5.218" transform="translate(21.443 2.916)"/>
        <path id="패스_7778" data-name="패스 7778" class="cls-3" d="M104.057 36.978a19.652 19.652 0 0 1-4.313-.444 9.469 9.469 0 0 1-3.408-1.457 7.051 7.051 0 0 1-2.256-2.609 8.8 8.8 0 0 1-.852-3.905q-.072-2.556-.071-5.1t.071-5.2A8.569 8.569 0 0 1 94.1 14.4a7.232 7.232 0 0 1 2.272-2.608 9.465 9.465 0 0 1 3.408-1.455 19.432 19.432 0 0 1 4.279-.443 17.133 17.133 0 0 1 4.153.478 9.976 9.976 0 0 1 3.356 1.49 7.607 7.607 0 0 1 2.307 2.592 8.712 8.712 0 0 1 .976 3.817q.107 2.556.088 5.218t-.088 5.077a8.334 8.334 0 0 1-.888 3.835 7.334 7.334 0 0 1-2.306 2.608 10.142 10.142 0 0 1-3.409 1.492 17.45 17.45 0 0 1-4.189.48m4.9-18.71a3.7 3.7 0 0 0-1.383-3.035 5.757 5.757 0 0 0-3.515-.976 5.644 5.644 0 0 0-3.569.993 3.83 3.83 0 0 0-1.335 3.047q-.107 5.149 0 10.26a3.757 3.757 0 0 0 1.331 3.053 5.785 5.785 0 0 0 3.569.958 5.482 5.482 0 0 0 3.461-1.01 3.992 3.992 0 0 0 1.437-3.036q.177-2.521.124-5.042t-.124-5.218" transform="translate(27.465 2.916)"/>
        <path id="패스_7779" data-name="패스 7779" class="cls-3" d="M132.224 19.168a3.682 3.682 0 0 1-2.113-.587 1.949 1.949 0 0 1-.941-1.507 2.988 2.988 0 0 0-1.331-2.148 5.879 5.879 0 0 0-3.355-.8 5.439 5.439 0 0 0-3.532 1.029 4.038 4.038 0 0 0-1.366 3.089q-.074 2.593-.107 5.2t.107 5.166a3.872 3.872 0 0 0 1.348 3.052 5.706 5.706 0 0 0 3.55.959 5.514 5.514 0 0 0 3.444-.959 3.61 3.61 0 0 0 1.242-3.052v-2.341h-3.3a3.441 3.441 0 0 1-1.243-.194 2.141 2.141 0 0 1-.782-.5 1.629 1.629 0 0 1-.39-.693 2.946 2.946 0 0 1-.106-.781 2.648 2.648 0 0 1 .106-.729 1.783 1.783 0 0 1 .39-.691 2.175 2.175 0 0 1 .782-.532 3.158 3.158 0 0 1 1.243-.214h6.958q2.449 0 2.45 2.131v4.544a8.379 8.379 0 0 1-.834 3.905 7.12 7.12 0 0 1-2.31 2.609 9.822 9.822 0 0 1-3.442 1.457 19.244 19.244 0 0 1-4.208.443 19.751 19.751 0 0 1-4.313-.443 9.479 9.479 0 0 1-3.408-1.457 7.1 7.1 0 0 1-2.256-2.609 8.8 8.8 0 0 1-.851-3.905q-.072-2.556-.071-5.183t.071-5.291a8.283 8.283 0 0 1 .888-3.833 7.365 7.365 0 0 1 2.289-2.612 9.969 9.969 0 0 1 3.355-1.49 16.818 16.818 0 0 1 4.083-.478 17.371 17.371 0 0 1 4.437.532 12.72 12.72 0 0 1 3.479 1.436 7.293 7.293 0 0 1 2.272 2.131 4.623 4.623 0 0 1 .817 2.609q0 2.735-3.053 2.733" transform="translate(33.488 2.867)"/>
        <path id="패스_7780" data-name="패스 7780" class="cls-3" d="M151.023 19.168a3.092 3.092 0 0 1-1.918-.587 2 2 0 0 1-.852-1.507 3 3 0 0 0-1.172-2.148 4.927 4.927 0 0 0-3.053-.8q-3.976 0-4.154 4.119-.107 2.733-.088 5.271t.088 5.1a4.193 4.193 0 0 0 1.1 3.052 4.33 4.33 0 0 0 3.053.959 4.582 4.582 0 0 0 3.035-.817 3.692 3.692 0 0 0 1.119-2.52 1.986 1.986 0 0 1 .919-1.49 3.187 3.187 0 0 1 1.881-.6q2.77 0 2.768 2.806a5.662 5.662 0 0 1-.691 2.733 6.918 6.918 0 0 1-1.971 2.236 9.937 9.937 0 0 1-3.07 1.508 13.6 13.6 0 0 1-3.995.55 16.46 16.46 0 0 1-3.905-.443 8.64 8.64 0 0 1-3.161-1.457 7.286 7.286 0 0 1-2.148-2.609 9.335 9.335 0 0 1-.869-3.905q-.142-5.432 0-10.474a8.943 8.943 0 0 1 .888-3.833 7.331 7.331 0 0 1 2.182-2.612 9.31 9.31 0 0 1 3.144-1.49 15.019 15.019 0 0 1 7.721.054 10.889 10.889 0 0 1 3.143 1.436 6.85 6.85 0 0 1 2.041 2.131 5.018 5.018 0 0 1 .728 2.609 2.432 2.432 0 0 1-2.768 2.733" transform="translate(39.47 2.867)"/>
        <path id="패스_7781" data-name="패스 7781" class="cls-3" d="M168.328 25.047h-9.94v8.523a3.819 3.819 0 0 1-.249 1.454 2.781 2.781 0 0 1-.675.994 2.867 2.867 0 0 1-.976.587 3.371 3.371 0 0 1-3.285-.587 2.979 2.979 0 0 1-.958-2.449V13.084a2.936 2.936 0 0 1 .958-2.415 3.381 3.381 0 0 1 3.285-.587 2.867 2.867 0 0 1 .976.587 2.77 2.77 0 0 1 .675.994 3.718 3.718 0 0 1 .249 1.42v7.527h9.94v-7.526a2.978 2.978 0 0 1 .922-2.432 3.242 3.242 0 0 1 2.131-.763 3.292 3.292 0 0 1 2.13.779 2.932 2.932 0 0 1 .958 2.415V33.57a2.975 2.975 0 0 1-.958 2.449 3.293 3.293 0 0 1-2.13.781 3.2 3.2 0 0 1-2.131-.781 3.036 3.036 0 0 1-.922-2.449z" transform="translate(44.886 2.916)"/>
        <path id="패스_7782" data-name="패스 7782" class="cls-3" d="M173.63 12.516a2.209 2.209 0 0 1 .978-1.989 3.9 3.9 0 0 1 2.183-.637 3.964 3.964 0 0 1 1.117.159 3.006 3.006 0 0 1 .978.478 2.3 2.3 0 0 1 .675.817 2.613 2.613 0 0 1 .247 1.172v21.55a2.813 2.813 0 0 1-.247 1.225 2.412 2.412 0 0 1-.675.852 2.8 2.8 0 0 1-.978.5 3.964 3.964 0 0 1-1.117.159 4.273 4.273 0 0 1-1.172-.159 2.977 2.977 0 0 1-1.011-.5 2.478 2.478 0 0 1-.711-.852 2.654 2.654 0 0 1-.267-1.225z" transform="translate(51.191 2.916)"/>
        <path id="패스_7783" data-name="패스 7783" d="M42.241 52.486h-32A10.274 10.274 0 0 1 0 42.241v-32A10.274 10.274 0 0 1 10.245 0h32a10.274 10.274 0 0 1 10.241 10.245v32a10.274 10.274 0 0 1-10.245 10.241" style="fill:#007fff"/>
        <path id="패스_7784" data-name="패스 7784" class="cls-3" d="M46.7 24.006a8.2 8.2 0 0 0-4.153-7.129 8.193 8.193 0 0 0-11.011-9.759A10.331 10.331 0 0 0 18.207 8.67a10.342 10.342 0 0 0-9.183 7.772 8.194 8.194 0 0 0-.894 14.694 8.186 8.186 0 0 0 10.085 10.089 8.2 8.2 0 0 0 14.25 0A8.2 8.2 0 0 0 42.55 31.136a8.2 8.2 0 0 0 4.15-7.13" transform="translate(1.173 1.582)"/>
        <path id="패스_7785" data-name="패스 7785" d="M9.276 19.948a1.613 1.613 0 0 1-1.44-.886 8.235 8.235 0 0 1 9.49-11.672 8.235 8.235 0 0 1 14.963 1.543 1.612 1.612 0 1 1-3.064 1 5.009 5.009 0 0 0-8.9-1.265 4.645 4.645 0 0 1 .805.568A8.25 8.25 0 0 1 24 15.227a4.439 4.439 0 0 1-1.486 3.409 1.613 1.613 0 0 1-.952.379 4.62 4.62 0 0 1-3.618-1.45 8.328 8.328 0 0 1-1.921-6.465 4.892 4.892 0 0 1 .106-.677 5.009 5.009 0 0 0-5.415 7.182 1.615 1.615 0 0 1-1.439 2.342m9.937-8.087a5 5 0 0 0 1.049 3.457 1.683 1.683 0 0 0 .458.344 2.1 2.1 0 0 0 .058-.476 4.932 4.932 0 0 0-1.565-3.325" transform="translate(2.047 .962)" style="fill:#ffb000"/>
        <path id="패스_7786" data-name="패스 7786" class="cls-3" d="M17.914 11.57c.444 1.205.491 2.3.107 2.439s-1.057-.721-1.5-1.927-.492-2.3-.107-2.439 1.057.721 1.5 1.927" transform="translate(4.762 2.839)"/>
    </g>
</svg>
