<svg xmlns="http://www.w3.org/2000/svg" width="24" height="24" viewBox="0 0 24 24">
    <path data-name="사각형 3271" style="fill:none" d="M0 0h24v24H0z"/>
    <path data-name="Icon awesome-lock" d="M13.658 7.649h-.819V5.19a5.19 5.19 0 0 0-10.38 0v2.459h-.82A1.639 1.639 0 0 0 0 9.288v6.556a1.639 1.639 0 0 0 1.639 1.639h12.019a1.639 1.639 0 0 0 1.642-1.64V9.288a1.639 1.639 0 0 0-1.642-1.639zm-3.551 0H5.19V5.19a2.458 2.458 0 0 1 4.917 0z" transform="translate(4.351 2.759)" style="fill:#dbdbdb"/>
</svg>
