<svg xmlns="http://www.w3.org/2000/svg" width="158.568" height="39.481" viewBox="0 0 158.568 39.481">
    <defs>
        <clipPath id="clip-path">
            <path id="사각형_3258" data-name="사각형 3258" style="fill:none" d="M0 0h158.568v39.481H0z"/>
        </clipPath>
        <style>
            .cls-3{fill:#007fff}
        </style>
    </defs>
    <g id="logo">
        <g id="그룹_5348" data-name="그룹 5348" style="clip-path:url(#clip-path)">
            <path id="패스_7452" data-name="패스 7452" class="cls-3" d="M19.74 39.481a7.593 7.593 0 0 1-7.23-5.239 1.49 1.49 0 1 1 2.832-.93 4.628 4.628 0 0 0 8.8 0 1.49 1.49 0 1 1 2.832.93 7.6 7.6 0 0 1-7.23 5.239"/>
            <path id="패스_7453" data-name="패스 7453" class="cls-3" d="M33.777 27.046a1.491 1.491 0 0 1-.464-2.907 4.628 4.628 0 0 0 0-8.8 1.49 1.49 0 1 1 .929-2.832 7.608 7.608 0 0 1 0 14.46 1.478 1.478 0 0 1-.465.075"/>
            <path id="패스_7454" data-name="패스 7454" class="cls-3" d="M5.7 27.046a1.478 1.478 0 0 1-.465-.075 7.608 7.608 0 0 1 0-14.46 1.49 1.49 0 1 1 .929 2.832 4.628 4.628 0 0 0 0 8.8 1.491 1.491 0 0 1-.464 2.903"/>
            <path id="패스_7455" data-name="패스 7455" class="cls-3" d="M28.322 35.93a7.614 7.614 0 0 1-3.441-.823 1.491 1.491 0 0 1 1.346-2.66 4.628 4.628 0 0 0 6.22-6.22 1.491 1.491 0 0 1 2.66-1.346 7.612 7.612 0 0 1-6.785 11.049"/>
            <path id="패스_7456" data-name="패스 7456" class="cls-3" d="M11.158 35.93a7.612 7.612 0 0 1-6.784-11.049 1.491 1.491 0 0 1 2.66 1.346 4.628 4.628 0 0 0 6.219 6.22 1.491 1.491 0 0 1 1.346 2.66 7.611 7.611 0 0 1-3.441.823"/>
            <path id="패스_7457" data-name="패스 7457" class="cls-3" d="M33.776 15.418a1.491 1.491 0 0 1-1.329-2.164 4.628 4.628 0 0 0-6.22-6.22 1.49 1.49 0 1 1-1.345-2.66A7.609 7.609 0 0 1 35.107 14.6a1.49 1.49 0 0 1-1.331.818"/>
            <path id="패스_7458" data-name="패스 7458" d="M26.971 5.239a7.61 7.61 0 0 0-13.827-1.424A7.61 7.61 0 0 0 4.374 14.6a1.493 1.493 0 0 0 1.332.818 1.471 1.471 0 0 0 .671-.162 1.49 1.49 0 0 0 .658-2 4.628 4.628 0 0 1 5-6.637 4.361 4.361 0 0 0-.1.625 7.7 7.7 0 0 0 1.778 5.975 4.277 4.277 0 0 0 3.343 1.34 1.49 1.49 0 0 0 .879-.35 4.1 4.1 0 0 0 1.374-3.151 7.622 7.622 0 0 0-2.652-5.532A4.3 4.3 0 0 0 15.918 5a4.629 4.629 0 0 1 8.221 1.17 1.49 1.49 0 1 0 2.832-.93M16.2 9.41c.41 1.114.455 2.123.1 2.254s-.976-.666-1.386-1.78-.455-2.123-.1-2.254.976.666 1.386 1.78" style="fill:#fa0"/>
            <path id="패스_7459" data-name="패스 7459" d="M60.826 17.22q-.8 1.149-1.631 2.509t-1.582 2.486a1.709 1.709 0 0 1-.7.6 2.153 2.153 0 0 1-.82.153 2.189 2.189 0 0 1-.8-.164 1.343 1.343 0 0 1-.68-.61L51.446 17.1v9.732a1.554 1.554 0 0 1-.622 1.384 2.433 2.433 0 0 1-1.4.422 2.681 2.681 0 0 1-.761-.106 1.836 1.836 0 0 1-.646-.328 1.708 1.708 0 0 1-.457-.562 1.747 1.747 0 0 1-.177-.81V12.624a1.514 1.514 0 0 1 .622-1.314 2.377 2.377 0 0 1 1.419-.445 6.171 6.171 0 0 1 .891.058 2.187 2.187 0 0 1 .727.235 2.681 2.681 0 0 1 .633.48 4.792 4.792 0 0 1 .611.774l3.8 5.956 3.939-5.956a3.8 3.8 0 0 1 1.187-1.212 3.317 3.317 0 0 1 1.63-.339 2.3 2.3 0 0 1 1.431.445 1.55 1.55 0 0 1 .586 1.314v14.21a1.735 1.735 0 0 1-.176.81 1.708 1.708 0 0 1-.457.562 1.84 1.84 0 0 1-.645.328 2.626 2.626 0 0 1-1.477 0 1.836 1.836 0 0 1-.646-.328 1.721 1.721 0 0 1-.458-.558 1.747 1.747 0 0 1-.175-.81z"/>
            <path id="패스_7460" data-name="패스 7460" d="M75.388 28.758a13.049 13.049 0 0 1-2.849-.293 6.269 6.269 0 0 1-2.251-.962 4.69 4.69 0 0 1-1.49-1.724 5.82 5.82 0 0 1-.562-2.579q-.048-1.689-.047-3.366t.047-3.435a5.647 5.647 0 0 1 .574-2.557 4.773 4.773 0 0 1 1.5-1.723 6.233 6.233 0 0 1 2.251-.961 12.818 12.818 0 0 1 2.826-.293 11.3 11.3 0 0 1 2.744.316 6.575 6.575 0 0 1 2.216.985 5.03 5.03 0 0 1 1.525 1.712 5.754 5.754 0 0 1 .644 2.521q.071 1.689.059 3.447t-.058 3.354a5.5 5.5 0 0 1-.586 2.532 4.865 4.865 0 0 1-1.524 1.724 6.727 6.727 0 0 1-2.251.985 11.592 11.592 0 0 1-2.768.317M78.624 16.4a2.445 2.445 0 0 0-.914-2.005 3.8 3.8 0 0 0-2.322-.645 3.724 3.724 0 0 0-2.356.656 2.528 2.528 0 0 0-.88 2.017q-.07 3.4 0 6.778a2.479 2.479 0 0 0 .88 2.016 3.813 3.813 0 0 0 2.356.633 3.622 3.622 0 0 0 2.287-.667 2.64 2.64 0 0 0 .949-2q.117-1.667.082-3.331t-.082-3.452"/>
            <path id="패스_7461" data-name="패스 7461" d="M92.858 28.758a13.049 13.049 0 0 1-2.849-.293 6.269 6.269 0 0 1-2.251-.962 4.69 4.69 0 0 1-1.49-1.724 5.82 5.82 0 0 1-.562-2.579q-.048-1.689-.047-3.366t.047-3.435a5.647 5.647 0 0 1 .574-2.557 4.773 4.773 0 0 1 1.5-1.723 6.233 6.233 0 0 1 2.251-.961 12.818 12.818 0 0 1 2.826-.293 11.3 11.3 0 0 1 2.744.316 6.575 6.575 0 0 1 2.216.985 5.03 5.03 0 0 1 1.525 1.712 5.754 5.754 0 0 1 .644 2.521q.07 1.689.059 3.447t-.058 3.354a5.5 5.5 0 0 1-.586 2.532 4.865 4.865 0 0 1-1.524 1.724 6.727 6.727 0 0 1-2.251.985 11.592 11.592 0 0 1-2.768.317M96.094 16.4a2.445 2.445 0 0 0-.914-2.005 3.8 3.8 0 0 0-2.322-.645 3.724 3.724 0 0 0-2.358.65 2.528 2.528 0 0 0-.88 2.017q-.071 3.4 0 6.778a2.479 2.479 0 0 0 .88 2.016 3.813 3.813 0 0 0 2.356.633 3.622 3.622 0 0 0 2.287-.667 2.64 2.64 0 0 0 .949-2q.117-1.667.082-3.331t-.08-3.446"/>
            <path id="패스_7462" data-name="패스 7462" d="M115.442 16.961a2.437 2.437 0 0 1-1.4-.387 1.291 1.291 0 0 1-.622-1 1.971 1.971 0 0 0-.879-1.419 3.879 3.879 0 0 0-2.216-.528 3.593 3.593 0 0 0-2.333.68 2.67 2.67 0 0 0-.9 2.041q-.048 1.712-.071 3.435t.071 3.412a2.563 2.563 0 0 0 .891 2.017 3.773 3.773 0 0 0 2.345.633 3.65 3.65 0 0 0 2.276-.633 2.389 2.389 0 0 0 .819-2.017v-1.544h-2.18a2.265 2.265 0 0 1-.821-.128 1.4 1.4 0 0 1-.516-.329 1.07 1.07 0 0 1-.258-.457 1.944 1.944 0 0 1-.07-.516 1.749 1.749 0 0 1 .07-.481 1.173 1.173 0 0 1 .258-.457 1.436 1.436 0 0 1 .516-.351 2.089 2.089 0 0 1 .821-.141h4.6q1.619 0 1.618 1.407v3a5.538 5.538 0 0 1-.55 2.58 4.692 4.692 0 0 1-1.526 1.723 6.466 6.466 0 0 1-2.274.962 12.654 12.654 0 0 1-2.779.293 13 13 0 0 1-2.849-.293 6.234 6.234 0 0 1-2.251-.962 4.679 4.679 0 0 1-1.49-1.723 5.822 5.822 0 0 1-.562-2.58q-.048-1.687-.047-3.423t.047-3.495a5.5 5.5 0 0 1 .586-2.532 4.876 4.876 0 0 1 1.513-1.724 6.575 6.575 0 0 1 2.216-.985 11.087 11.087 0 0 1 2.7-.316 11.531 11.531 0 0 1 2.932.351 8.367 8.367 0 0 1 2.3.95 4.819 4.819 0 0 1 1.5 1.407 3.048 3.048 0 0 1 .539 1.723q0 1.808-2.016 1.806"/>
            <path id="패스_7463" data-name="패스 7463" d="M131.811 16.961a2.038 2.038 0 0 1-1.266-.387 1.326 1.326 0 0 1-.564-1 1.981 1.981 0 0 0-.774-1.419 3.247 3.247 0 0 0-2.016-.528q-2.626 0-2.744 2.721-.07 1.8-.058 3.482t.058 3.365a2.776 2.776 0 0 0 .727 2.017 2.865 2.865 0 0 0 2.017.633 3.038 3.038 0 0 0 2-.539 2.446 2.446 0 0 0 .738-1.665 1.312 1.312 0 0 1 .611-.985 2.1 2.1 0 0 1 1.242-.4 1.627 1.627 0 0 1 1.829 1.852 3.745 3.745 0 0 1-.457 1.806 4.567 4.567 0 0 1-1.3 1.477 6.52 6.52 0 0 1-2.028 1 8.954 8.954 0 0 1-2.638.364 10.836 10.836 0 0 1-2.58-.293 5.693 5.693 0 0 1-2.088-.962 4.8 4.8 0 0 1-1.418-1.723 6.152 6.152 0 0 1-.574-2.58q-.094-3.588 0-6.918a5.914 5.914 0 0 1 .586-2.532 4.851 4.851 0 0 1 1.442-1.724 6.132 6.132 0 0 1 2.076-.985 9.922 9.922 0 0 1 5.1.035 7.176 7.176 0 0 1 2.076.95 4.531 4.531 0 0 1 1.348 1.407 3.323 3.323 0 0 1 .481 1.723 1.607 1.607 0 0 1-1.829 1.806"/>
            <path id="패스_7464" data-name="패스 7464" d="M146.819 20.877h-6.566v5.629a2.51 2.51 0 0 1-.165.961 1.818 1.818 0 0 1-.445.657 1.877 1.877 0 0 1-.645.387 2.23 2.23 0 0 1-2.17-.387 1.971 1.971 0 0 1-.633-1.618V12.975a1.941 1.941 0 0 1 .633-1.6 2.23 2.23 0 0 1 2.17-.387 1.877 1.877 0 0 1 .645.387 1.81 1.81 0 0 1 .445.657 2.442 2.442 0 0 1 .165.938v4.971h6.566v-4.966a1.971 1.971 0 0 1 .609-1.607 2.145 2.145 0 0 1 1.407-.5 2.175 2.175 0 0 1 1.408.515 1.938 1.938 0 0 1 .633 1.6v13.523a1.968 1.968 0 0 1-.633 1.618 2.175 2.175 0 0 1-1.408.515 2.115 2.115 0 0 1-1.407-.515 2.008 2.008 0 0 1-.609-1.618z"/>
            <path id="패스_7465" data-name="패스 7465" d="M154.487 12.6a1.456 1.456 0 0 1 .646-1.313 2.567 2.567 0 0 1 1.441-.422 2.62 2.62 0 0 1 .739.106 1.956 1.956 0 0 1 .646.316 1.515 1.515 0 0 1 .445.539 1.721 1.721 0 0 1 .164.774v14.233a1.855 1.855 0 0 1-.164.81 1.6 1.6 0 0 1-.445.562 1.855 1.855 0 0 1-.646.329 2.619 2.619 0 0 1-.739.1 2.829 2.829 0 0 1-.774-.1 1.955 1.955 0 0 1-.667-.329 1.629 1.629 0 0 1-.47-.562 1.76 1.76 0 0 1-.176-.81z"/>
        </g>
    </g>
</svg>
