<svg id="logo" xmlns="http://www.w3.org/2000/svg" width="70.667" height="74.338" viewBox="0 0 70.667 74.338">
    <defs>
        <clipPath id="clip-path">
            <path id="사각형_3330" data-name="사각형 3330" style="fill:none" d="M0 0h70.667v74.338H0z"/>
        </clipPath>
        <style>
            .cls-3{fill:#007fff}
        </style>
    </defs>
    <g id="그룹_5414" data-name="그룹 5414" style="clip-path:url(#clip-path)">
        <path id="패스_7636" data-name="패스 7636" d="M8.542 51.505q-.507.73-1.036 1.595T6.5 54.68a1.089 1.089 0 0 1-.447.381 1.36 1.36 0 0 1-1.028-.008.858.858 0 0 1-.432-.387L2.579 51.43v6.186a.988.988 0 0 1-.394.881 1.554 1.554 0 0 1-.887.268 1.708 1.708 0 0 1-.485-.065 1.181 1.181 0 0 1-.413-.212 1.087 1.087 0 0 1-.289-.358A1.108 1.108 0 0 1 0 57.615v-9.031a.963.963 0 0 1 .4-.836 1.512 1.512 0 0 1 .9-.283 3.878 3.878 0 0 1 .566.037 1.418 1.418 0 0 1 .462.149 1.714 1.714 0 0 1 .4.305 3.062 3.062 0 0 1 .389.492l2.413 3.787 2.5-3.786a2.428 2.428 0 0 1 .752-.768 2.11 2.11 0 0 1 1.036-.215 1.458 1.458 0 0 1 .909.283.984.984 0 0 1 .373.836v9.031a1.108 1.108 0 0 1-.111.515 1.074 1.074 0 0 1-.291.358 1.175 1.175 0 0 1-.41.208 1.664 1.664 0 0 1-.939 0 1.175 1.175 0 0 1-.41-.208 1.074 1.074 0 0 1-.291-.358 1.108 1.108 0 0 1-.111-.515z" transform="translate(0 15.5)"/>
        <path id="패스_7637" data-name="패스 7637" d="M14.544 58.839a8.3 8.3 0 0 1-1.812-.187 3.971 3.971 0 0 1-1.43-.612 2.964 2.964 0 0 1-.947-1.094A3.7 3.7 0 0 1 10 55.3q-.032-1.073-.031-2.138T10 50.983a3.571 3.571 0 0 1 .365-1.625 3.035 3.035 0 0 1 .954-1.1 3.969 3.969 0 0 1 1.43-.61 8.146 8.146 0 0 1 1.8-.187 7.182 7.182 0 0 1 1.743.2 4.171 4.171 0 0 1 1.409.626 3.191 3.191 0 0 1 .97 1.088 3.646 3.646 0 0 1 .409 1.6q.046 1.073.037 2.19t-.043 2.135a3.506 3.506 0 0 1-.371 1.61 3.09 3.09 0 0 1-.97 1.1 4.275 4.275 0 0 1-1.43.626 7.379 7.379 0 0 1-1.759.2m2.056-7.853a1.556 1.556 0 0 0-.581-1.275 2.417 2.417 0 0 0-1.475-.41 2.366 2.366 0 0 0-1.5.418A1.606 1.606 0 0 0 12.486 51q-.044 2.161 0 4.307a1.578 1.578 0 0 0 .558 1.283 2.434 2.434 0 0 0 1.5.4A2.293 2.293 0 0 0 16 56.565a1.68 1.68 0 0 0 .6-1.275c.049-.706.066-1.41.053-2.117s-.033-1.434-.053-2.19" transform="translate(3.255 15.5)"/>
        <path id="패스_7638" data-name="패스 7638" d="M22.914 58.839a8.3 8.3 0 0 1-1.812-.187 3.971 3.971 0 0 1-1.43-.612 2.964 2.964 0 0 1-.947-1.094 3.7 3.7 0 0 1-.357-1.641q-.032-1.073-.031-2.138t.031-2.184a3.571 3.571 0 0 1 .365-1.625 3.035 3.035 0 0 1 .954-1.1 3.969 3.969 0 0 1 1.43-.61 8.146 8.146 0 0 1 1.8-.187 7.182 7.182 0 0 1 1.743.2 4.171 4.171 0 0 1 1.409.626 3.192 3.192 0 0 1 .97 1.088 3.646 3.646 0 0 1 .409 1.6q.046 1.073.037 2.19t-.041 2.135a3.49 3.49 0 0 1-.373 1.61 3.074 3.074 0 0 1-.968 1.1 4.275 4.275 0 0 1-1.43.626 7.379 7.379 0 0 1-1.759.2m2.056-7.856a1.556 1.556 0 0 0-.581-1.275 2.417 2.417 0 0 0-1.475-.41 2.366 2.366 0 0 0-1.5.418A1.606 1.606 0 0 0 20.856 51q-.044 2.161 0 4.307a1.578 1.578 0 0 0 .558 1.283 2.434 2.434 0 0 0 1.5.4 2.293 2.293 0 0 0 1.453-.424 1.68 1.68 0 0 0 .6-1.275c.049-.706.066-1.41.052-2.117s-.032-1.434-.052-2.19" transform="translate(5.988 15.5)"/>
        <path id="패스_7639" data-name="패스 7639" d="M34.534 51.363a1.55 1.55 0 0 1-.887-.245.823.823 0 0 1-.4-.634 1.252 1.252 0 0 0-.558-.9 2.475 2.475 0 0 0-1.409-.334 2.286 2.286 0 0 0-1.483.431 1.7 1.7 0 0 0-.573 1.3q-.032 1.088-.045 2.184t.045 2.169a1.622 1.622 0 0 0 .566 1.281 2.388 2.388 0 0 0 1.49.4 2.31 2.31 0 0 0 1.446-.4 1.516 1.516 0 0 0 .521-1.281v-.984h-1.38a1.447 1.447 0 0 1-.523-.081.879.879 0 0 1-.328-.21.676.676 0 0 1-.164-.291 1.265 1.265 0 0 1-.044-.328 1.13 1.13 0 0 1 .044-.305.744.744 0 0 1 .164-.291.9.9 0 0 1 .328-.224 1.33 1.33 0 0 1 .523-.089h2.921q1.029 0 1.028.894v1.908a3.508 3.508 0 0 1-.35 1.64 2.98 2.98 0 0 1-.97 1.1 4.131 4.131 0 0 1-1.445.612 8.085 8.085 0 0 1-1.767.186 8.3 8.3 0 0 1-1.811-.186 3.984 3.984 0 0 1-1.43-.612 2.968 2.968 0 0 1-.947-1.1 3.714 3.714 0 0 1-.358-1.64q-.03-1.073-.029-2.176t.029-2.222a3.5 3.5 0 0 1 .373-1.609 3.109 3.109 0 0 1 .962-1.1 4.16 4.16 0 0 1 1.409-.626 7.05 7.05 0 0 1 1.714-.2 7.271 7.271 0 0 1 1.862.223 5.3 5.3 0 0 1 1.461.6 3.077 3.077 0 0 1 .955.894 1.943 1.943 0 0 1 .342 1.1q0 1.148-1.281 1.147" transform="translate(8.722 15.478)"/>
        <path id="패스_7640" data-name="패스 7640" d="M42.223 51.363a1.3 1.3 0 0 1-.805-.245.846.846 0 0 1-.358-.634 1.258 1.258 0 0 0-.492-.9 2.07 2.07 0 0 0-1.281-.334 1.575 1.575 0 0 0-1.743 1.728q-.046 1.148-.037 2.214t.037 2.138A1.759 1.759 0 0 0 38 56.609a1.813 1.813 0 0 0 1.281.4 1.93 1.93 0 0 0 1.275-.344 1.558 1.558 0 0 0 .47-1.059.831.831 0 0 1 .387-.625 1.33 1.33 0 0 1 .789-.253 1.034 1.034 0 0 1 1.163 1.177 2.376 2.376 0 0 1-.291 1.149 2.9 2.9 0 0 1-.828.938 4.165 4.165 0 0 1-1.289.634 5.706 5.706 0 0 1-1.677.231 6.918 6.918 0 0 1-1.64-.186 3.641 3.641 0 0 1-1.327-.612 3.059 3.059 0 0 1-.9-1.1 3.925 3.925 0 0 1-.365-1.64q-.06-2.28 0-4.4a3.752 3.752 0 0 1 .373-1.609 3.071 3.071 0 0 1 .917-1.1 3.881 3.881 0 0 1 1.32-.626 6.314 6.314 0 0 1 3.241.023 4.553 4.553 0 0 1 1.32.6 2.883 2.883 0 0 1 .857.894 2.116 2.116 0 0 1 .305 1.1 1.021 1.021 0 0 1-1.162 1.147" transform="translate(11.437 15.478)"/>
        <path id="패스_7641" data-name="패스 7641" d="M49.3 53.829h-4.169v3.578a1.581 1.581 0 0 1-.1.61 1.146 1.146 0 0 1-.283.418 1.189 1.189 0 0 1-.41.247 1.42 1.42 0 0 1-1.38-.247 1.25 1.25 0 0 1-.4-1.028v-8.6a1.231 1.231 0 0 1 .4-1.013 1.42 1.42 0 0 1 1.38-.247 1.189 1.189 0 0 1 .41.247 1.152 1.152 0 0 1 .283.417 1.553 1.553 0 0 1 .1.6v3.159H49.3v-3.163a1.251 1.251 0 0 1 .387-1.021 1.4 1.4 0 0 1 1.788.008 1.228 1.228 0 0 1 .4 1.013v8.6a1.246 1.246 0 0 1-.4 1.028 1.377 1.377 0 0 1-.894.328 1.344 1.344 0 0 1-.894-.328 1.273 1.273 0 0 1-.387-1.028z" transform="translate(13.895 15.5)"/>
        <path id="패스_7642" data-name="패스 7642" d="M51.316 48.568a.926.926 0 0 1 .41-.834 1.638 1.638 0 0 1 .917-.268 1.66 1.66 0 0 1 .47.066 1.246 1.246 0 0 1 .41.2.955.955 0 0 1 .284.342 1.1 1.1 0 0 1 .1.492v9.047a1.18 1.18 0 0 1-.1.515 1.011 1.011 0 0 1-.284.358 1.163 1.163 0 0 1-.41.208 1.66 1.66 0 0 1-.47.066 1.8 1.8 0 0 1-.492-.066 1.256 1.256 0 0 1-.424-.208 1.048 1.048 0 0 1-.3-.358 1.125 1.125 0 0 1-.111-.515z" transform="translate(16.757 15.5)"/>
        <path id="패스_7643" data-name="패스 7643" class="cls-3" d="M29.292 45.3A10.913 10.913 0 0 1 18.9 37.778a2.142 2.142 0 0 1 4.07-1.336 6.649 6.649 0 0 0 12.637 0 2.142 2.142 0 1 1 4.07 1.336A10.913 10.913 0 0 1 29.292 45.3" transform="translate(6.138 11.419)"/>
        <path id="패스_7644" data-name="패스 7644" class="cls-3" d="M42.438 34.459a2.141 2.141 0 0 1-.667-4.176 6.649 6.649 0 0 0 0-12.638 2.141 2.141 0 1 1 1.336-4.069 10.931 10.931 0 0 1 0 20.775 2.141 2.141 0 0 1-.669.107" transform="translate(13.159 4.398)"/>
        <path id="패스_7645" data-name="패스 7645" class="cls-3" d="M13.524 34.459a2.141 2.141 0 0 1-.669-.107 10.931 10.931 0 0 1 0-20.775 2.141 2.141 0 1 1 1.336 4.069 6.649 6.649 0 0 0 0 12.638 2.141 2.141 0 0 1-.667 4.176" transform="translate(1.74 4.398)"/>
        <path id="패스_7646" data-name="패스 7646" class="cls-3" d="M37.509 43.111a10.914 10.914 0 0 1-4.943-1.183 2.141 2.141 0 1 1 1.933-3.82 6.648 6.648 0 0 0 8.936-8.936 2.142 2.142 0 1 1 3.822-1.934 10.935 10.935 0 0 1-9.747 15.873" transform="translate(10.251 8.51)"/>
        <path id="패스_7647" data-name="패스 7647" class="cls-3" d="M20.1 43.111a10.936 10.936 0 0 1-9.747-15.873 2.142 2.142 0 1 1 3.822 1.934 6.649 6.649 0 0 0 8.936 8.936 2.141 2.141 0 1 1 1.934 3.82 10.92 10.92 0 0 1-4.945 1.183" transform="translate(2.996 8.51)"/>
        <path id="패스_7648" data-name="패스 7648" class="cls-3" d="M45.345 20.9a2.115 2.115 0 0 1-.964-.232 2.14 2.14 0 0 1-.944-2.877A6.649 6.649 0 0 0 34.5 8.85a2.141 2.141 0 1 1-1.933-3.822A10.932 10.932 0 0 1 47.258 19.72a2.142 2.142 0 0 1-1.913 1.18" transform="translate(10.251 1.256)"/>
        <path id="패스_7649" data-name="패스 7649" d="M42.822 7.527A10.933 10.933 0 0 0 22.957 5.48a10.934 10.934 0 0 0-12.6 15.5 2.142 2.142 0 0 0 3.822-1.934 6.649 6.649 0 0 1 7.189-9.535 6.317 6.317 0 0 0-.141.9 11.056 11.056 0 0 0 2.555 8.584 6.14 6.14 0 0 0 4.8 1.926 2.151 2.151 0 0 0 1.263-.5 5.885 5.885 0 0 0 1.974-4.526 10.953 10.953 0 0 0-3.81-7.949 6.09 6.09 0 0 0-1.069-.753 6.649 6.649 0 0 1 11.81 1.679 2.142 2.142 0 0 0 4.07-1.335m-15.479 5.982c.589 1.6.653 3.051.142 3.238s-1.4-.956-1.991-2.558-.654-3.05-.143-3.238 1.4.956 1.992 2.558" transform="translate(2.996)" style="fill:#fa0"/>
    </g>
</svg>
