<svg xmlns="http://www.w3.org/2000/svg" width="79" height="79" viewBox="0 0 79 79">
    <defs>
        <clipPath id="clip-path">
            <path id="사각형_18" data-name="사각형 18" style="fill:none;stroke:#fff;stroke-width:3px" d="M0 0h54.789v48.472H0z"/>
        </clipPath>
        <style>
            .cls-4{fill:none;stroke:#fff;stroke-width:3px;stroke-linecap:round;stroke-linejoin:round}
        </style>
    </defs>
    <g id="icon" transform="translate(-436.804 -1105.804)">
        <circle id="타원_647" data-name="타원 647" cx="39.5" cy="39.5" r="39.5" transform="translate(436.804 1105.804)" style="fill:#007fff;opacity:.203"/>
        <g id="그룹_5420" data-name="그룹 5420" transform="translate(448.99 1120.988)">
            <g id="그룹_83" data-name="그룹 83">
                <g id="그룹_20" data-name="그룹 20" style="clip-path:url(#clip-path)">
                    <path id="패스_25" data-name="패스 25" class="cls-4" d="M10.409 2.5 2.5 16.21h52.731L47.321 2.5z" transform="translate(-1.471 -1.471)"/>
                    <path id="패스_26" data-name="패스 26" class="cls-4" d="M2.644 35.816A6.994 6.994 0 0 0 16.159 38.4a6.977 6.977 0 0 0 12.821.458A6.977 6.977 0 0 0 41.8 38.4a6.994 6.994 0 0 0 13.514-2.584" transform="translate(-1.556 -21.077)"/>
                    <path id="패스_27" data-name="패스 27" class="cls-4" d="M14.758 52.943V78.6H58.2V52.943" transform="translate(-8.685 -31.156)"/>
                    <rect id="사각형_17" data-name="사각형 17" class="cls-4" width="12.658" height="12.658" rx="6.329" transform="translate(29.525 26.675)"/>
                    <path id="패스_28" data-name="패스 28" class="cls-4" d="M29.005 84.656v-16.93a3.052 3.052 0 0 1 3.18-2.9h6.3a3.052 3.052 0 0 1 3.18 2.9v16.93" transform="translate(-17.069 -38.146)"/>
                </g>
            </g>
        </g>
    </g>
</svg>
