<?xml version="1.0" standalone="no"?>
<!DOCTYPE svg PUBLIC "-//W3C//DTD SVG 20010904//EN"
 "http://www.w3.org/TR/2001/REC-SVG-20010904/DTD/svg10.dtd">
<svg version="1.0" xmlns="http://www.w3.org/2000/svg"
 width="512.000000pt" height="512.000000pt" viewBox="0 0 512.000000 512.000000"
 preserveAspectRatio="xMidYMid meet">
<metadata>
Created by potrace 1.14, written by Peter Selinger 2001-2017
</metadata>
<g transform="translate(0.000000,512.000000) scale(0.100000,-0.100000)"
fill="#000000" stroke="none">
<path d="M2370 5076 c-240 -51 -460 -194 -600 -391 -54 -75 -56 -76 -90 -71
-189 32 -301 31 -445 -3 -406 -98 -702 -437 -744 -853 -9 -93 0 -247 18 -313
9 -32 7 -35 -32 -61 -199 -129 -343 -322 -414 -550 -25 -83 -27 -100 -27 -274
0 -173 2 -191 27 -273 31 -99 81 -204 140 -292 51 -77 177 -200 251 -245 54
-34 56 -36 51 -70 -23 -155 -26 -196 -21 -281 13 -185 77 -369 180 -513 63
-88 199 -212 294 -270 90 -54 242 -109 342 -125 114 -19 284 -13 390 13 22 6
30 -1 65 -56 86 -136 264 -282 422 -348 143 -60 212 -73 383 -73 135 0 168 3
251 26 225 59 428 202 556 388 32 47 52 68 62 65 112 -34 352 -32 486 3 100
26 260 104 345 169 169 127 297 320 355 532 24 90 32 341 13 432 l-14 67 67
46 c146 100 287 277 350 439 53 138 72 251 66 401 -8 190 -43 309 -136 470
-53 92 -203 250 -292 308 l-56 36 13 63 c18 85 18 300 -1 385 -65 305 -262
557 -540 689 -174 83 -395 113 -585 80 -68 -12 -96 -14 -98 -6 -10 28 -127
173 -175 216 -110 99 -249 177 -394 220 -75 23 -110 27 -243 30 -105 2 -176
-1 -220 -10z m380 -392 c172 -54 327 -208 375 -370 18 -62 73 -117 135 -135
49 -15 102 -5 195 34 214 91 474 32 641 -145 167 -176 212 -448 108 -652 -38
-73 -38 -146 0 -210 23 -39 38 -53 85 -73 118 -51 138 -62 197 -107 147 -110
228 -278 228 -471 0 -83 -5 -114 -28 -180 -62 -179 -182 -303 -357 -370 -146
-56 -191 -170 -123 -307 33 -65 54 -159 54 -243 0 -272 -206 -523 -475 -580
-125 -26 -254 -12 -357 40 -28 14 -71 29 -95 32 -92 12 -183 -53 -217 -158
-40 -122 -150 -247 -276 -313 -319 -168 -704 -19 -835 323 -28 74 -60 112
-117 135 -55 23 -102 20 -180 -15 -181 -79 -339 -76 -516 11 -199 99 -322 301
-322 530 0 94 15 159 54 245 44 97 32 187 -33 249 -15 15 -58 37 -94 51 -281
102 -442 408 -367 699 48 190 173 330 360 407 41 17 86 40 98 52 65 60 80 160
37 241 -66 125 -79 296 -32 439 66 202 239 359 442 402 74 16 153 19 203 9
l30 -6 -5 -137 c-17 -429 159 -755 463 -857 66 -22 92 -25 165 -22 79 3 91 6
131 34 52 38 118 132 147 209 89 239 8 559 -207 811 -56 67 -127 130 -178 160
-17 10 -13 17 48 80 168 174 388 231 618 158z m-751 -602 c77 -81 140 -239
148 -372 5 -77 3 -87 -16 -104 -20 -18 -21 -18 -48 -1 -85 56 -170 241 -180
391 -9 128 26 160 96 86z"/>
</g>
</svg>
