<svg xmlns="http://www.w3.org/2000/svg" width="24" height="24" viewBox="0 0 24 24">
    <path data-name="Icon metro-pin" d="m19.03 16.824-6.2-3.582A1.592 1.592 0 1 0 11.234 16l6.2 3.582a1.592 1.592 0 0 0 1.593-2.756zm-5.117-3.873 4.825 2.786 1.642-4.567-3.332-1.923-3.135 3.7zm-3.557 11.733 4.616-5.607-2.072-1.194-2.548 6.8zm12.018-16.04-4.135-2.388a1.194 1.194 0 1 0-1.194 2.068l4.136 2.388a1.194 1.194 0 1 0 1.193-2.068z" transform="translate(-4.357 -3.096)" style="fill:#007fff"/>
    <path data-name="사각형 3272" style="fill:none" d="M0 0h24v24H0z"/>
</svg>
